<svg width="15" height="9" viewBox="0 0 15 9" fill="none" xmlns="http://www.w3.org/2000/svg">
<path d="M14.6698 8.65584C14.4584 8.87621 14.1716 9 13.8725 9C13.5735 9 13.2867 8.87621 13.0753 8.65584L7.49319 2.83731L1.91111 8.65584C1.69843 8.86996 1.41357 8.98844 1.11789 8.98576C0.822216 8.98309 0.539376 8.85946 0.330293 8.64152C0.12121 8.42358 0.00261299 8.12876 4.37659e-05 7.82056C-0.00252641 7.51236 0.111139 7.21544 0.316558 6.99374L6.69591 0.34416C6.90739 0.123795 7.19417 6.82407e-07 7.49319 6.56266e-07C7.79222 6.30125e-07 8.079 0.123795 8.29047 0.34416L14.6698 6.99374C14.8812 7.21417 15 7.5131 15 7.82479C15 8.13648 14.8812 8.43541 14.6698 8.65584Z" fill="#009FE3"/>
</svg>
