<svg width="35" height="35" viewBox="0 0 35 35" fill="none" xmlns="http://www.w3.org/2000/svg">
<path d="M27.1588 0H7.55576C3.38363 0 0 3.42939 0 7.66571V27.3343C0 31.5706 3.38363 35 7.55576 35H27.1588C31.331 35 34.7146 31.5706 34.7146 27.3343V7.66571C34.7146 3.42939 31.331 0 27.1588 0ZM29.6841 9.73343H26.4701C25.0029 9.73343 24.973 9.91499 24.973 11.1657V14.8674H29.6841L29.1551 19.8804H24.8731V32.8314H19.4534V19.8804H15.8701V14.8674H19.5332V10.0259C19.5332 7.39337 21.5793 4.93228 24.943 4.93228H29.6741V9.73343H29.6841Z" fill="#143F70"/>
</svg>
