<svg width="35" height="35" viewBox="0 0 35 35" fill="none" xmlns="http://www.w3.org/2000/svg">
<path d="M17.3073 22.0893C19.821 22.0893 21.8587 20.0301 21.8587 17.4899C21.8587 14.9497 19.821 12.8905 17.3073 12.8905C14.7936 12.8905 12.7559 14.9497 12.7559 17.4899C12.7559 20.0301 14.7936 22.0893 17.3073 22.0893Z" fill="#143F70"/>
<path d="M22.5774 6.44519H12.0273C10.59 6.44519 9.24251 7.02012 8.21445 8.04894C7.18639 9.07776 6.62744 10.4495 6.62744 11.902V23.2593C6.62744 24.7118 7.19637 26.0734 8.21445 27.1123C9.23253 28.1512 10.59 28.7161 12.0273 28.7161H22.5774C24.0147 28.7161 25.3621 28.1412 26.3902 27.1123C27.4183 26.0835 27.9772 24.7118 27.9772 23.2593V11.902C27.9772 10.4495 27.4083 9.08784 26.3902 8.04894C25.3721 7.01003 24.0147 6.44519 22.5774 6.44519ZM17.3373 24.4999C13.5045 24.4999 10.3904 21.353 10.3904 17.4798C10.3904 13.6066 13.5045 10.4596 17.3373 10.4596C21.17 10.4596 24.2842 13.6066 24.2842 17.4798C24.2842 21.353 21.17 24.4999 17.3373 24.4999ZM24.4039 12.0129C23.4957 12.0129 22.7571 11.2665 22.7571 10.3486C22.7571 9.43078 23.4957 8.68438 24.4039 8.68438C25.3122 8.68438 26.0508 9.43078 26.0508 10.3486C26.0508 11.2665 25.3122 12.0129 24.4039 12.0129Z" fill="#143F70"/>
<path d="M27.1588 0H7.55577C3.38363 0 0 3.42939 0 7.66571V27.3343C0 31.5706 3.38363 35 7.55577 35H27.1588C31.331 35 34.7146 31.5706 34.7146 27.3343V7.66571C34.7046 3.42939 31.331 0 27.1588 0ZM29.9236 23.2695C29.9236 27.3444 26.6198 30.683 22.5874 30.683H12.0373C7.99494 30.683 4.70114 27.3444 4.70114 23.2695V11.9121C4.70114 7.83718 8.00492 4.49856 12.0373 4.49856H22.5874C26.6198 4.49856 29.9236 7.83718 29.9236 11.9121V23.2695Z" fill="#143F70"/>
</svg>
