<svg width="35" height="35" viewBox="0 0 35 35" fill="none" xmlns="http://www.w3.org/2000/svg">
<path d="M27.1588 0H7.55576C3.38363 0 0 3.42939 0 7.66571V27.3343C0 31.5706 3.38363 35 7.55576 35H27.1588C31.331 35 34.7146 31.5706 34.7146 27.3343V7.66571C34.7146 3.42939 31.331 0 27.1588 0ZM11.169 28.6556H6.85708V14.1412H11.169V28.6556ZM9.01302 11.781C7.52582 11.781 6.31809 10.5605 6.31809 9.05764C6.31809 7.55475 7.52582 6.33429 9.01302 6.33429C10.5002 6.33429 11.7079 7.55475 11.7079 9.05764C11.7079 10.5605 10.5002 11.781 9.01302 11.781ZM28.4065 28.6556H24.0946V21.3934C24.0946 19.4669 23.336 17.7723 21.5494 17.7723C19.3835 17.7723 18.3554 19.255 18.3554 21.6859V28.6556H14.0435V14.1412H18.1059V16.2291H18.1458C18.7646 15.0994 20.5912 13.9597 22.8569 13.9597C27.1988 13.9597 28.4065 16.2896 28.4065 20.5965V28.6556Z" fill="#143F70"/>
</svg>
 