<svg width="183" height="36" viewBox="0 0 183 36" fill="none" xmlns="http://www.w3.org/2000/svg">
<path d="M142.325 25.8274V21.4437C142.325 21.2897 142.351 21.1893 142.402 21.1379C142.454 21.0866 142.556 21.0609 142.71 21.0609H142.82C142.972 21.0609 143.074 21.0866 143.126 21.1379C143.177 21.1893 143.203 21.2897 143.203 21.4437V25.657C143.203 25.8788 143.233 26.0352 143.296 26.1262C143.359 26.2172 143.462 26.2616 143.604 26.2616C143.747 26.2616 143.835 26.2826 143.873 26.3199C143.91 26.3596 143.929 26.453 143.929 26.6001V26.6864C143.929 26.8218 143.905 26.9152 143.861 26.9642C143.817 27.0132 143.721 27.0506 143.581 27.0786C143.562 27.0856 143.525 27.0879 143.462 27.0879C143.105 27.0879 142.827 26.9829 142.629 26.7681C142.43 26.5557 142.33 26.2429 142.33 25.8274H142.325Z" fill="white"/>
<path d="M148.427 24.4666C148.427 24.4899 148.422 24.6136 148.411 24.8424C148.392 25.0011 148.357 25.1062 148.301 25.1575C148.245 25.2089 148.135 25.2345 147.976 25.2345H145.609V25.4213C145.609 25.7341 145.703 25.9558 145.894 26.0889C146.086 26.2219 146.396 26.2896 146.826 26.2896C147.194 26.2896 147.563 26.2453 147.932 26.1542C148.067 26.1192 148.161 26.1239 148.21 26.1659C148.256 26.2079 148.282 26.3036 148.282 26.4507V26.5604C148.282 26.7004 148.261 26.7961 148.219 26.8452C148.177 26.8942 148.081 26.9385 147.934 26.9782C147.61 27.0692 147.241 27.1136 146.828 27.1136C146.107 27.1136 145.579 26.9665 145.241 26.6748C144.905 26.383 144.734 25.9208 144.734 25.2906V24.5506C144.734 23.3181 145.362 22.7042 146.625 22.7042C147.215 22.7042 147.664 22.8536 147.969 23.1501C148.275 23.4488 148.429 23.8853 148.429 24.4642L148.427 24.4666ZM145.612 24.3055V24.5179H147.603V24.3055C147.603 23.743 147.269 23.4629 146.599 23.4629C145.929 23.4629 145.612 23.743 145.612 24.3055Z" fill="white"/>
<path d="M153.205 24.2099V24.2869C153.205 25.3093 152.596 25.8182 151.375 25.8182C150.966 25.8182 150.703 25.8345 150.581 25.8695C150.462 25.9045 150.402 25.9769 150.402 26.0889C150.402 26.1846 150.465 26.2523 150.588 26.285C150.719 26.32 150.98 26.3364 151.373 26.3364C152.106 26.3364 152.612 26.4274 152.897 26.6071C153.175 26.7822 153.312 27.0973 153.312 27.5525C153.312 28.0357 153.172 28.3741 152.888 28.5749C152.605 28.7733 152.099 28.8737 151.373 28.8737C150.647 28.8737 150.107 28.7803 149.823 28.5936C149.545 28.4068 149.407 28.115 149.407 27.7159C149.407 27.3167 149.557 27.039 149.858 26.8546C149.643 26.7238 149.533 26.5254 149.533 26.2593C149.533 25.8788 149.757 25.6361 150.206 25.5264C149.746 25.3046 149.517 24.8915 149.517 24.2846V24.2075C149.517 23.7313 149.68 23.3602 150.007 23.0964C150.334 22.8327 150.789 22.7019 151.373 22.7019C151.678 22.7019 151.949 22.7463 152.183 22.8373L152.666 22.4195C152.762 22.3355 152.843 22.2935 152.909 22.2935C152.974 22.2935 153.051 22.3378 153.142 22.4288L153.219 22.5059C153.31 22.5969 153.357 22.6739 153.359 22.737C153.361 22.7977 153.317 22.8747 153.226 22.9657L152.876 23.3415C153.093 23.5563 153.2 23.8481 153.2 24.2099H153.205ZM151.375 27.088C150.999 27.088 150.742 27.0763 150.6 27.053C150.39 27.144 150.285 27.3261 150.285 27.5968C150.285 27.8116 150.357 27.9563 150.507 28.0263C150.654 28.0964 150.943 28.1314 151.375 28.1314C151.807 28.1314 152.071 28.094 152.218 28.0217C152.365 27.9493 152.439 27.7999 152.439 27.5805C152.439 27.3611 152.367 27.228 152.225 27.172C152.089 27.116 151.807 27.0856 151.375 27.0856V27.088ZM152.327 24.2869V24.2099C152.327 23.9554 152.253 23.7664 152.101 23.6426C151.952 23.5213 151.709 23.4606 151.373 23.4606C150.719 23.4606 150.395 23.7103 150.395 24.2099V24.2869C150.395 24.56 150.469 24.7561 150.619 24.8775C150.768 24.9988 151.02 25.0619 151.373 25.0619C151.725 25.0619 151.963 25.0012 152.108 24.8775C152.253 24.7561 152.325 24.56 152.325 24.2869H152.327Z" fill="white"/>
<path d="M157.663 24.1001V25.7527C157.663 26.2242 157.519 26.5674 157.229 26.7868C156.94 27.0062 156.48 27.1136 155.85 27.1136C154.697 27.1136 154.12 26.6771 154.12 25.8018C154.12 25.3606 154.262 25.0338 154.55 24.8284C154.834 24.6206 155.271 24.5179 155.854 24.5179H156.793V24.1001C156.793 23.862 156.716 23.6939 156.559 23.5982C156.403 23.5025 156.146 23.4535 155.789 23.4535C155.432 23.4535 155.152 23.4792 154.895 23.5305C154.769 23.5539 154.687 23.5445 154.643 23.5095C154.599 23.4745 154.58 23.3882 154.58 23.2574V23.1384C154.58 23.0123 154.601 22.926 154.643 22.877C154.685 22.8303 154.767 22.7929 154.886 22.7719C155.187 22.7276 155.469 22.7042 155.738 22.7042C156.384 22.7042 156.865 22.8139 157.185 23.0357C157.502 23.2574 157.661 23.6122 157.661 24.1001H157.663ZM156.795 25.7084V25.1808H155.857C155.563 25.1808 155.346 25.2275 155.206 25.3209C155.065 25.4143 154.998 25.5707 154.998 25.7854C154.998 26.0002 155.065 26.1449 155.201 26.2359C155.339 26.327 155.546 26.3713 155.831 26.3713C156.177 26.3713 156.424 26.3223 156.571 26.2266C156.718 26.1309 156.793 25.9581 156.793 25.7061L156.795 25.7084Z" fill="white"/>
<path d="M162.645 21.4437V25.2905C162.645 25.8858 162.479 26.3386 162.148 26.6491C161.816 26.9595 161.335 27.1113 160.705 27.1113C159.405 27.1113 158.756 26.5043 158.756 25.2905V24.5599C158.756 23.3228 159.349 22.7042 160.535 22.7042C161.13 22.7042 161.545 22.8886 161.776 23.2574V21.4437C161.776 21.2897 161.802 21.1893 161.853 21.1379C161.905 21.0866 162.005 21.0609 162.159 21.0609H162.262C162.416 21.0609 162.516 21.0866 162.57 21.1379C162.621 21.1893 162.647 21.2897 162.647 21.4437H162.645ZM159.631 24.5436V25.2765C159.631 25.6524 159.708 25.9138 159.86 26.0632C160.014 26.2126 160.292 26.2873 160.693 26.2873C161.095 26.2873 161.377 26.2102 161.536 26.0562C161.695 25.9045 161.774 25.643 161.774 25.2742V24.5413C161.774 24.1654 161.695 23.904 161.536 23.75C161.377 23.5959 161.097 23.5189 160.693 23.5189C160.289 23.5189 160.021 23.5959 159.865 23.75C159.708 23.904 159.631 24.1654 159.631 24.5413V24.5436Z" fill="white"/>
<path d="M165.752 27.1136C165.082 27.1136 164.587 26.9642 164.272 26.6631C163.954 26.362 163.795 25.8998 163.795 25.2765V24.5436C163.795 23.3181 164.447 22.7065 165.754 22.7065C166.419 22.7065 166.907 22.8583 167.222 23.1617C167.537 23.4652 167.696 23.925 167.696 24.5436V25.2765C167.696 25.8788 167.533 26.3339 167.206 26.6467C166.879 26.9595 166.396 27.1136 165.754 27.1136H165.752ZM166.816 25.2742V24.5413C166.816 24.1654 166.739 23.904 166.582 23.7499C166.426 23.5959 166.151 23.5189 165.752 23.5189C165.352 23.5189 165.068 23.5959 164.909 23.7499C164.75 23.904 164.671 24.1654 164.671 24.5413V25.2742C164.671 25.643 164.75 25.9044 164.909 26.0562C165.068 26.2102 165.35 26.2873 165.752 26.2873C166.153 26.2873 166.433 26.2126 166.585 26.0632C166.739 25.9114 166.816 25.65 166.816 25.2765V25.2742Z" fill="white"/>
<path d="M175.25 24.4666C175.25 24.4899 175.245 24.6136 175.233 24.8424C175.215 25.0011 175.18 25.1062 175.124 25.1575C175.068 25.2089 174.958 25.2345 174.799 25.2345H172.432V25.4213C172.432 25.7341 172.526 25.9558 172.717 26.0889C172.908 26.2219 173.219 26.2896 173.648 26.2896C174.017 26.2896 174.386 26.2453 174.755 26.1542C174.89 26.1192 174.984 26.1239 175.033 26.1659C175.079 26.2079 175.105 26.3036 175.105 26.4507V26.5604C175.105 26.7004 175.084 26.7961 175.042 26.8452C175 26.8942 174.904 26.9385 174.757 26.9782C174.433 27.0692 174.064 27.1136 173.651 27.1136C172.929 27.1136 172.402 26.9665 172.063 26.6748C171.727 26.383 171.557 25.9208 171.557 25.2906V24.5506C171.557 23.3181 172.185 22.7042 173.448 22.7042C174.038 22.7042 174.486 22.8536 174.792 23.1501C175.098 23.4488 175.252 23.8853 175.252 24.4642L175.25 24.4666ZM172.432 24.3055V24.5179H174.423V24.3055C174.423 23.743 174.09 23.4629 173.42 23.4629C172.75 23.4629 172.432 23.743 172.432 24.3055Z" fill="white"/>
<path d="M177.472 24.3545V26.6374C177.472 26.7891 177.446 26.8918 177.395 26.9432C177.343 26.9945 177.243 27.0202 177.089 27.0202H176.979C176.825 27.0202 176.725 26.9945 176.671 26.9432C176.617 26.8918 176.594 26.7891 176.594 26.6374V24.3545C176.594 23.2528 177.171 22.7042 178.324 22.7042C178.947 22.7042 179.372 22.9096 179.6 23.3251C179.827 22.912 180.254 22.7042 180.877 22.7042C181.461 22.7042 181.893 22.8396 182.175 23.1127C182.455 23.3858 182.598 23.799 182.598 24.3545V26.6374C182.598 26.7891 182.572 26.8918 182.521 26.9432C182.469 26.9945 182.367 27.0202 182.213 27.0202H182.103C181.949 27.0202 181.848 26.9945 181.797 26.9432C181.746 26.8918 181.72 26.7891 181.72 26.6374V24.3545C181.72 24.0487 181.659 23.8317 181.536 23.7079C181.412 23.5842 181.192 23.5212 180.877 23.5212C180.562 23.5212 180.343 23.5842 180.212 23.7126C180.081 23.841 180.016 24.0557 180.016 24.3545V26.6374C180.016 26.7891 179.99 26.8918 179.941 26.9432C179.892 26.9945 179.787 27.0202 179.633 27.0202H179.547C179.393 27.0202 179.292 26.9945 179.241 26.9432C179.19 26.8918 179.164 26.7891 179.164 26.6374V24.3545C179.164 24.0487 179.103 23.8317 178.98 23.7079C178.856 23.5842 178.636 23.5212 178.321 23.5212C178.006 23.5212 177.782 23.5842 177.656 23.7079C177.532 23.8317 177.469 24.0487 177.469 24.3545H177.472Z" fill="white"/>
<path d="M142.232 33.4651V32.6294C142.232 32.0576 142.4 31.6164 142.738 31.3059C143.077 30.9955 143.562 30.8438 144.2 30.8438C144.433 30.8438 144.655 30.8718 144.863 30.9278C145.005 30.9628 145.098 31.0048 145.14 31.0608C145.182 31.1145 145.203 31.2126 145.203 31.3549V31.4647C145.203 31.614 145.178 31.7051 145.126 31.7471C145.075 31.7868 144.982 31.7868 144.846 31.7471C144.692 31.6911 144.482 31.6607 144.216 31.6607C143.808 31.6607 143.52 31.7354 143.357 31.8825C143.194 32.0295 143.11 32.2816 143.11 32.6388V33.4394C143.11 33.8082 143.196 34.065 143.369 34.2097C143.541 34.3544 143.845 34.4268 144.277 34.4268C144.44 34.4268 144.66 34.4011 144.933 34.3498C145.068 34.3218 145.161 34.3264 145.21 34.3684C145.257 34.4081 145.283 34.4992 145.283 34.6392V34.7419C145.283 34.8796 145.259 34.9753 145.21 35.0314C145.161 35.0874 145.068 35.1341 144.926 35.1668C144.704 35.2228 144.475 35.2508 144.237 35.2508C142.904 35.2508 142.237 34.6556 142.237 33.4651H142.232Z" fill="white"/>
<path d="M149.755 32.2372V33.8898C149.755 34.3613 149.611 34.7045 149.321 34.9239C149.032 35.1433 148.572 35.2507 147.942 35.2507C146.788 35.2507 146.212 34.8142 146.212 33.9388C146.212 33.4977 146.354 33.1709 146.641 32.9655C146.926 32.7577 147.363 32.655 147.946 32.655H148.885V32.2372C148.885 31.9991 148.808 31.831 148.651 31.7353C148.495 31.6396 148.238 31.5906 147.881 31.5906C147.524 31.5906 147.244 31.6163 146.987 31.6676C146.861 31.691 146.779 31.6816 146.735 31.6466C146.69 31.6116 146.672 31.5252 146.672 31.3945V31.2755C146.672 31.1494 146.693 31.0631 146.735 31.014C146.777 30.9674 146.858 30.93 146.978 30.909C147.279 30.8647 147.561 30.8413 147.83 30.8413C148.476 30.8413 148.957 30.951 149.277 31.1728C149.594 31.3945 149.753 31.7493 149.753 32.2372H149.755ZM148.889 33.8455V33.3179H147.951C147.657 33.3179 147.44 33.3646 147.3 33.458C147.16 33.5514 147.092 33.7077 147.092 33.9225C147.092 34.1372 147.16 34.282 147.295 34.373C147.433 34.464 147.64 34.5084 147.925 34.5084C148.271 34.5084 148.518 34.4594 148.665 34.3637C148.812 34.268 148.887 34.0952 148.887 33.8431L148.889 33.8455Z" fill="white"/>
<path d="M154.907 29.5809V33.4278C154.907 34.023 154.741 34.4758 154.41 34.7863C154.078 35.0967 153.597 35.2485 152.967 35.2485C151.667 35.2485 151.018 34.6416 151.018 33.4278V32.6971C151.018 31.46 151.611 30.8414 152.797 30.8414C153.392 30.8414 153.807 31.0258 154.039 31.3946V29.5809C154.039 29.4269 154.064 29.3265 154.116 29.2751C154.167 29.2238 154.267 29.1981 154.421 29.1981H154.524C154.678 29.1981 154.779 29.2238 154.832 29.2751C154.884 29.3265 154.909 29.4269 154.909 29.5809H154.907ZM151.893 32.6808V33.4137C151.893 33.7896 151.97 34.051 152.122 34.2004C152.276 34.3498 152.554 34.4245 152.955 34.4245C153.357 34.4245 153.639 34.3474 153.798 34.1934C153.957 34.0417 154.036 33.7802 154.036 33.4114V32.6785C154.036 32.3027 153.957 32.0412 153.798 31.8872C153.639 31.7331 153.359 31.6561 152.955 31.6561C152.552 31.6561 152.283 31.7331 152.127 31.8872C151.97 32.0412 151.893 32.3027 151.893 32.6785V32.6808Z" fill="white"/>
<path d="M159.648 32.2372V33.8898C159.648 34.3613 159.503 34.7045 159.213 34.9239C158.924 35.1433 158.464 35.2507 157.834 35.2507C156.681 35.2507 156.104 34.8142 156.104 33.9388C156.104 33.4977 156.247 33.1709 156.534 32.9655C156.819 32.7577 157.255 32.655 157.839 32.655H158.777V32.2372C158.777 31.9991 158.7 31.831 158.544 31.7353C158.387 31.6396 158.13 31.5906 157.773 31.5906C157.416 31.5906 157.136 31.6163 156.879 31.6676C156.753 31.691 156.671 31.6816 156.627 31.6466C156.583 31.6116 156.564 31.5252 156.564 31.3945V31.2755C156.564 31.1494 156.585 31.0631 156.627 31.014C156.669 30.9674 156.751 30.93 156.87 30.909C157.171 30.8647 157.453 30.8413 157.722 30.8413C158.368 30.8413 158.849 30.951 159.169 31.1728C159.487 31.3945 159.645 31.7493 159.645 32.2372H159.648ZM158.779 33.8455V33.3179H157.841C157.547 33.3179 157.33 33.3646 157.19 33.458C157.05 33.5514 156.982 33.7077 156.982 33.9225C156.982 34.1372 157.05 34.282 157.185 34.373C157.323 34.464 157.53 34.5084 157.815 34.5084C158.161 34.5084 158.408 34.4594 158.555 34.3637C158.702 34.268 158.777 34.0952 158.777 33.8431L158.779 33.8455Z" fill="white"/>
<path d="M162.745 31.4553V31.369C162.745 31.2499 162.764 31.1682 162.804 31.1215C162.843 31.0749 162.92 31.0422 163.035 31.0188L163.485 30.9325V30.4376C163.485 29.9217 163.611 29.5459 163.863 29.3148C164.115 29.0814 164.501 28.967 165.016 28.967C165.199 28.967 165.381 28.981 165.56 29.0091C165.71 29.0371 165.805 29.0768 165.854 29.1281C165.901 29.1795 165.927 29.2775 165.927 29.4175V29.5203C165.927 29.6673 165.901 29.7607 165.85 29.8004C165.798 29.8237 165.742 29.8354 165.679 29.8354L165.409 29.819C165.271 29.8004 165.161 29.7934 165.077 29.7934C164.594 29.7934 164.354 29.9871 164.354 30.3723V30.9348H165.486C165.635 30.9348 165.731 30.9581 165.775 31.0025C165.819 31.0468 165.843 31.1449 165.843 31.2919V31.3946C165.843 31.544 165.819 31.6397 165.775 31.6841C165.731 31.7284 165.633 31.7518 165.486 31.7518H164.354V34.7746C164.354 34.9263 164.328 35.0291 164.277 35.0804C164.225 35.1318 164.122 35.1574 163.968 35.1574H163.866C163.712 35.1574 163.611 35.1318 163.558 35.0804C163.504 35.0291 163.481 34.9263 163.481 34.7746V31.7518H163.039C162.92 31.7518 162.841 31.7331 162.801 31.6934C162.762 31.6537 162.743 31.5744 162.743 31.4553H162.745Z" fill="white"/>
<path d="M168.637 35.2508C167.967 35.2508 167.472 35.1014 167.157 34.8003C166.839 34.4992 166.681 34.037 166.681 33.4137V32.6808C166.681 31.4553 167.332 30.8438 168.639 30.8438C169.304 30.8438 169.792 30.9955 170.107 31.2989C170.422 31.6024 170.581 32.0622 170.581 32.6808V33.4137C170.581 34.016 170.418 34.4711 170.091 34.7839C169.764 35.0967 169.281 35.2508 168.639 35.2508H168.637ZM169.701 33.4114V32.6785C169.701 32.3026 169.624 32.0412 169.468 31.8872C169.311 31.7331 169.036 31.6561 168.637 31.6561C168.238 31.6561 167.953 31.7331 167.794 31.8872C167.635 32.0412 167.556 32.3026 167.556 32.6785V33.4114C167.556 33.7802 167.635 34.0417 167.794 34.1934C167.953 34.3474 168.235 34.4245 168.637 34.4245C169.038 34.4245 169.318 34.3498 169.47 34.2004C169.624 34.0487 169.701 33.7872 169.701 33.4137V33.4114Z" fill="white"/>
<path d="M171.76 33.9669V29.5833C171.76 29.4292 171.786 29.3288 171.837 29.2775C171.888 29.2261 171.991 29.2004 172.145 29.2004H172.255C172.407 29.2004 172.509 29.2261 172.561 29.2775C172.612 29.3288 172.638 29.4292 172.638 29.5833V33.7965C172.638 34.0183 172.668 34.1747 172.731 34.2657C172.794 34.3568 172.897 34.4011 173.039 34.4011C173.182 34.4011 173.27 34.4221 173.308 34.4595C173.345 34.4992 173.364 34.5925 173.364 34.7396V34.8259C173.364 34.9613 173.34 35.0547 173.296 35.1037C173.252 35.1527 173.156 35.1901 173.016 35.2181C172.997 35.2251 172.96 35.2274 172.897 35.2274C172.54 35.2274 172.262 35.1224 172.063 34.9076C171.865 34.6952 171.765 34.3824 171.765 33.9669H171.76Z" fill="white"/>
<path d="M174.339 34.7746V29.5809C174.339 29.4269 174.365 29.3265 174.416 29.2751C174.468 29.2238 174.57 29.1981 174.725 29.1981H174.834C174.988 29.1981 175.089 29.2238 175.142 29.2751C175.194 29.3265 175.219 29.4269 175.219 29.5809V31.369C175.485 31.0165 175.927 30.8414 176.538 30.8414C177.019 30.8414 177.393 30.9651 177.654 31.2102C177.915 31.4577 178.046 31.8241 178.046 32.312V34.7723C178.046 34.924 178.02 35.0267 177.969 35.0781C177.918 35.1294 177.817 35.1551 177.663 35.1551H177.554C177.4 35.1551 177.299 35.1294 177.245 35.0781C177.192 35.0267 177.168 34.924 177.168 34.7723V32.4474C177.168 32.1696 177.098 31.9689 176.956 31.8428C176.814 31.7191 176.585 31.6561 176.267 31.6561C175.91 31.6561 175.647 31.7424 175.476 31.9105C175.306 32.0786 175.222 32.354 175.222 32.7275V34.7699C175.222 34.9217 175.196 35.0244 175.145 35.0757C175.093 35.1271 174.991 35.1528 174.837 35.1528H174.727C174.573 35.1528 174.472 35.1271 174.419 35.0757C174.367 35.0244 174.342 34.9217 174.342 34.7699L174.339 34.7746Z" fill="white"/>
<path d="M182.64 32.2372V33.8898C182.64 34.3613 182.495 34.7045 182.206 34.9239C181.916 35.1433 181.456 35.2507 180.826 35.2507C179.673 35.2507 179.096 34.8142 179.096 33.9388C179.096 33.4977 179.239 33.1709 179.526 32.9655C179.811 32.7577 180.247 32.655 180.831 32.655H181.769V32.2372C181.769 31.9991 181.692 31.831 181.536 31.7353C181.379 31.6396 181.123 31.5906 180.765 31.5906C180.408 31.5906 180.128 31.6163 179.871 31.6676C179.745 31.691 179.664 31.6816 179.619 31.6466C179.575 31.6116 179.556 31.5252 179.556 31.3945V31.2755C179.556 31.1494 179.577 31.0631 179.619 31.014C179.661 30.9674 179.743 30.93 179.862 30.909C180.163 30.8647 180.446 30.8413 180.714 30.8413C181.361 30.8413 181.841 30.951 182.161 31.1728C182.479 31.3945 182.637 31.7493 182.637 32.2372H182.64ZM181.771 33.8455V33.3179H180.833C180.539 33.3179 180.322 33.3646 180.182 33.458C180.042 33.5514 179.974 33.7077 179.974 33.9225C179.974 34.1372 180.042 34.282 180.177 34.373C180.315 34.464 180.523 34.5084 180.807 34.5084C181.153 34.5084 181.4 34.4594 181.547 34.3637C181.694 34.268 181.769 34.0952 181.769 33.8431L181.771 33.8455Z" fill="white"/>
<path d="M61.4543 0.821369C61.4543 0.576149 61.5273 0.376163 61.6778 0.226174C61.826 0.076185 62.0212 0 62.2659 0H64.0889C64.3311 0 64.5264 0.076185 64.6769 0.226174C64.8251 0.376163 64.9004 0.576149 64.9004 0.821369V13.5371C64.9004 13.7823 64.8251 13.9823 64.6769 14.1323C64.5287 14.2823 64.3311 14.3585 64.0889 14.3585H62.2659C62.0236 14.3585 61.826 14.2847 61.6778 14.1323C61.5296 13.9823 61.4543 13.7847 61.4543 13.5371V0.821369Z" fill="white"/>
<path d="M66.6233 4.51233C66.6233 3.82893 66.729 3.20982 66.9405 2.65501C67.152 2.1002 67.4486 1.62872 67.8325 1.24059C68.2142 0.850079 68.6762 0.54767 69.2188 0.328602C69.7591 0.109534 70.3522 0 71.0005 0H78.9226C79.5824 0 80.1802 0.109534 80.7158 0.328602C81.2515 0.54767 81.7066 0.852461 82.0814 1.24059C82.4561 1.62872 82.7504 2.10258 82.9619 2.65501C83.1734 3.20982 83.2791 3.82655 83.2791 4.51233V9.84616C83.2791 10.5153 83.1734 11.132 82.9619 11.6916C82.7504 12.2535 82.4561 12.7274 82.0814 13.1179C81.7044 13.5084 81.2492 13.8108 80.7158 14.0299C80.1802 14.249 79.5847 14.3585 78.9226 14.3585H71.0005C70.3545 14.3585 69.7591 14.249 69.2188 14.0299C68.6762 13.8108 68.2142 13.506 67.8325 13.1179C67.4486 12.7274 67.152 12.2535 66.9405 11.6916C66.729 11.132 66.6233 10.5153 66.6233 9.84616V4.51233ZM69.9889 9.4366C69.9889 10.0509 70.1706 10.5486 70.5338 10.9248C70.897 11.3011 71.3752 11.4892 71.9706 11.4892H77.9318C78.5272 11.4892 79.0054 11.3011 79.3686 10.9248C79.7319 10.5486 79.9135 10.0533 79.9135 9.4366V4.92427C79.9135 4.30993 79.7319 3.81464 79.3686 3.43604C79.0054 3.05981 78.5272 2.8717 77.9318 2.8717H71.9706C71.3752 2.8717 70.897 3.05981 70.5338 3.43604C70.1706 3.81226 69.9889 4.30755 69.9889 4.92427V9.4366Z" fill="white"/>
<path d="M122.09 0.718996C122.197 0.499964 122.359 0.326167 122.58 0.195224C122.801 0.0642811 123.031 0 123.27 0H125.412C125.652 0 125.882 0.0642811 126.102 0.195224C126.323 0.326167 126.486 0.499964 126.593 0.718996L132.578 13.6395C132.685 13.8585 132.701 14.0323 132.627 14.1633C132.555 14.2942 132.397 14.3585 132.157 14.3585H130.096C129.857 14.3585 129.627 14.2942 129.406 14.1633C129.186 14.0323 129.023 13.8585 128.916 13.6395L127.996 11.6492H120.691L119.771 13.6395C119.664 13.8585 119.502 14.0323 119.281 14.1633C119.06 14.2942 118.83 14.3585 118.591 14.3585H116.53C116.291 14.3585 116.133 14.2942 116.061 14.1633C115.988 14.0323 116.005 13.8585 116.112 13.6395L122.097 0.718996H122.09ZM122.009 8.77794H126.672L124.351 3.77354L122.009 8.77794Z" fill="white"/>
<path d="M136.695 5.23057V13.5371C136.695 13.7823 136.619 13.9823 136.471 14.1323C136.323 14.2823 136.125 14.3585 135.883 14.3585H134.059C133.816 14.3585 133.619 14.2847 133.47 14.1323C133.322 13.9823 133.247 13.7847 133.247 13.5371V0.821369C133.247 0.576149 133.32 0.376163 133.47 0.226174C133.621 0.076185 133.816 0 134.061 0H135.885C136.127 0 136.377 0.0547579 136.636 0.164274C136.892 0.27379 137.095 0.423779 137.243 0.614241L144.157 9.12553V0.821369C144.157 0.576149 144.23 0.376163 144.381 0.226174C144.529 0.076185 144.725 0 144.969 0H146.793C147.036 0 147.233 0.076185 147.382 0.226174C147.53 0.376163 147.605 0.576149 147.605 0.821369V13.5371C147.605 13.7823 147.53 13.9823 147.382 14.1323C147.233 14.2823 147.038 14.3585 146.793 14.3585H144.969C144.727 14.3585 144.475 14.3037 144.219 14.1942C143.962 14.0847 143.76 13.9347 143.611 13.7442L136.697 5.23295L136.695 5.23057Z" fill="white"/>
<path d="M153.727 14.3537C153.078 14.3537 152.479 14.2442 151.937 14.0252C151.391 13.8062 150.927 13.5015 150.543 13.1135C150.158 12.7232 149.86 12.2495 149.647 11.6877C149.434 11.1283 149.328 10.5118 149.328 9.84289V4.51083C149.328 3.82766 149.434 3.20876 149.647 2.65413C149.86 2.0995 150.158 1.62818 150.543 1.24018C150.927 0.849798 151.391 0.547489 151.937 0.328493C152.479 0.109498 153.078 0 153.727 0H159.679C160.423 0 161.056 0.0547489 161.58 0.164247C162.104 0.273744 162.541 0.461795 162.892 0.728398C163.243 0.995001 163.511 1.34968 163.699 1.79481C163.883 2.23994 164.004 2.78981 164.057 3.4468C164.082 3.68008 164.02 3.87289 163.867 4.03237C163.715 4.18948 163.518 4.26803 163.28 4.26803H161.689C161.263 4.26803 160.972 3.99429 160.813 3.4468C160.746 3.2278 160.637 3.07784 160.485 2.99452C160.332 2.91359 160.104 2.87074 159.799 2.87074H154.704C154.106 2.87074 153.625 3.0588 153.26 3.4349C152.895 3.811 152.713 4.30612 152.713 4.92264V9.43347C152.713 10.0476 152.895 10.5451 153.26 10.9212C153.625 11.2973 154.106 11.4854 154.704 11.4854H159.997C160.302 11.4854 160.531 11.4449 160.684 11.3616C160.836 11.2806 160.945 11.1307 161.012 10.9117C161.171 10.3642 161.462 10.0905 161.887 10.0905H163.479C163.717 10.0905 163.914 10.169 164.066 10.3261C164.218 10.4832 164.281 10.6784 164.255 10.9117C164.202 11.5687 164.082 12.1185 163.897 12.5637C163.71 13.0088 163.442 13.3635 163.091 13.6301C162.74 13.8967 162.301 14.0847 161.779 14.1942C161.254 14.3037 160.621 14.3585 159.877 14.3585H153.727V14.3537Z" fill="white"/>
<path d="M165.412 4.51233C165.412 3.82893 165.521 3.20982 165.74 2.65501C165.959 2.1002 166.266 1.62872 166.663 1.24059C167.058 0.850079 167.536 0.54767 168.097 0.328602C168.654 0.109534 169.27 0 169.938 0H178.133C178.816 0 179.434 0.109534 179.988 0.328602C180.542 0.54767 181.013 0.852461 181.401 1.24059C181.791 1.6311 182.093 2.10258 182.312 2.65501C182.53 3.20982 182.64 3.82655 182.64 4.51233V9.84616C182.64 10.5153 182.53 11.132 182.312 11.6916C182.093 12.2535 181.788 12.7274 181.401 13.1179C181.011 13.5084 180.54 13.8108 179.988 14.0299C179.434 14.249 178.818 14.3585 178.133 14.3585H169.938C169.27 14.3585 168.654 14.249 168.095 14.0299C167.533 13.8108 167.055 13.506 166.661 13.1179C166.263 12.7274 165.957 12.2535 165.738 11.6916C165.519 11.132 165.41 10.5153 165.41 9.84616V4.51233H165.412ZM168.894 9.4366C168.894 10.0509 169.082 10.5486 169.457 10.9248C169.833 11.3011 170.328 11.4892 170.944 11.4892H177.11C177.726 11.4892 178.221 11.3011 178.597 10.9248C178.973 10.5486 179.161 10.0533 179.161 9.4366V4.92427C179.161 4.30993 178.973 3.81464 178.597 3.43604C178.221 3.05981 177.726 2.8717 177.11 2.8717H170.944C170.328 2.8717 169.833 3.05981 169.457 3.43604C169.082 3.81226 168.894 4.30755 168.894 4.92427V9.4366Z" fill="white"/>
<path d="M22.9713 28.145H17.1831C16.5755 28.145 16.0815 28.639 16.0815 29.2465V35.0348L22.9736 28.1427L22.9713 28.145Z" fill="#009FE3"/>
<path d="M59.5473 13.7441L55.5828 9.06751C56.9316 8.88893 57.9478 8.41031 58.6359 7.63167C59.3217 6.85302 59.6658 5.78625 59.6658 4.43137C59.6658 3.73368 59.5405 3.1122 59.2921 2.56453C59.0438 2.01686 58.6906 1.55491 58.2326 1.18106C57.7747 0.804837 57.2187 0.514334 56.5648 0.309553C55.9109 0.102391 55.1704 0 54.3479 0H45.9473V13.537C45.9473 13.7822 46.0179 13.9823 46.1637 14.1323C46.3073 14.2823 46.4964 14.3585 46.7333 14.3585H48.4991C48.7338 14.3585 48.9229 14.2847 49.0687 14.1323C49.2146 13.9799 49.2852 13.7846 49.2852 13.537V9.14847H51.2082L55.0952 13.7441C55.2524 13.9346 55.4507 14.087 55.6944 14.1942C55.936 14.3037 56.1752 14.3585 56.4099 14.3585H59.2944C59.5291 14.3585 59.6703 14.3037 59.7159 14.1942C59.7615 14.0846 59.7068 13.9346 59.5496 13.7441H59.5473ZM54.0517 6.27678H49.2829V2.8717H54.1314C54.8765 2.8717 55.4301 3.02647 55.7901 3.33364C56.1501 3.64082 56.3301 4.04085 56.3301 4.53376C56.3301 5.06714 56.1479 5.49099 55.781 5.8053C55.4142 6.11962 54.8378 6.27678 54.054 6.27678H54.0517Z" fill="white"/>
<path d="M99.9347 7.91741C99.5492 7.35545 99.0598 6.90541 98.462 6.56252C98.7667 6.2482 99.0113 5.88865 99.1983 5.48623C99.383 5.08381 99.4776 4.62186 99.4776 4.10276C99.4776 2.81693 99.1129 1.81207 98.3835 1.0882C97.654 0.361939 96.6845 0 95.4796 0H85.5767V13.537C85.5767 13.7822 85.6482 13.9823 85.796 14.1323C85.9414 14.2823 86.133 14.3585 86.373 14.3585H95.4796C97.1762 14.3585 98.4389 13.9799 99.2676 13.2203C100.096 12.4607 100.509 11.3915 100.509 10.0105C100.509 9.17705 100.318 8.47936 99.9324 7.91741H99.9347ZM88.9561 2.8717H94.3646C94.8817 2.8717 95.2995 2.99314 95.6181 3.23125C95.9366 3.47175 96.0959 3.7694 96.0959 4.12419C96.0959 4.58852 95.8604 4.94808 95.3895 5.20049C94.9186 5.45289 94.2723 5.57909 93.4505 5.57909H88.9561V2.8717ZM96.5829 11.0653C96.2182 11.3463 95.7381 11.4868 95.1402 11.4868H88.9561V8.45079H95.1402C95.7381 8.45079 96.2182 8.59128 96.5829 8.87226C96.9477 9.15324 97.13 9.51756 97.13 9.96998C97.13 10.4224 96.9477 10.7867 96.5829 11.0677V11.0653Z" fill="white"/>
<path d="M115.835 13.7441L111.87 9.06751C113.219 8.88893 114.235 8.41031 114.923 7.63167C115.609 6.85302 115.953 5.78625 115.953 4.43137C115.953 3.73368 115.828 3.1122 115.58 2.56453C115.331 2.01686 114.978 1.55491 114.52 1.18106C114.062 0.804837 113.506 0.514334 112.852 0.309553C112.198 0.102391 111.458 0 110.633 0H102.232V13.537C102.232 13.7822 102.303 13.9823 102.449 14.1323C102.592 14.2823 102.782 14.3585 103.018 14.3585H104.784C105.019 14.3585 105.208 14.2847 105.354 14.1323C105.5 13.9799 105.57 13.7846 105.57 13.537V9.14847H107.493L111.38 13.7441C111.538 13.9346 111.736 14.087 111.98 14.1942C112.221 14.3037 112.46 14.3585 112.695 14.3585H115.58C115.814 14.3585 115.955 14.3037 116.001 14.1942C116.047 14.0846 115.992 13.9346 115.835 13.7441ZM110.339 6.27678H105.57V2.8717H110.419C111.164 2.8717 111.718 3.02647 112.078 3.33364C112.438 3.64082 112.618 4.04085 112.618 4.53376C112.618 5.06714 112.435 5.49099 112.068 5.8053C111.702 6.11962 111.125 6.27678 110.341 6.27678H110.339Z" fill="white"/>
<path d="M59.8894 25.5192C59.8894 24.8352 59.761 24.226 59.5066 23.6891C59.2521 23.1523 58.8903 22.6994 58.4212 22.3329C57.952 21.9641 57.3824 21.6794 56.7125 21.4786C56.0426 21.2779 55.2839 21.1775 54.4413 21.1775H45.835V34.4476C45.835 34.688 45.9073 34.8841 46.0567 35.0312C46.2038 35.1782 46.3975 35.2529 46.6403 35.2529H48.4493C48.6897 35.2529 48.8835 35.1806 49.0329 35.0312C49.1823 34.8818 49.2546 34.6904 49.2546 34.4476V30.1456H54.523C56.2783 30.1456 57.6135 29.7511 58.5239 28.9598C59.4342 28.1685 59.8917 27.0224 59.8917 25.5215L59.8894 25.5192ZM55.9072 26.866C55.5314 27.1741 54.9408 27.3282 54.1378 27.3282H49.2523V23.9902H54.2195C54.9828 23.9902 55.55 24.142 55.9189 24.4431C56.2877 24.7442 56.4721 25.1364 56.4721 25.6195C56.4721 26.1424 56.2853 26.5579 55.9095 26.866H55.9072Z" fill="white"/>
<path d="M70.0853 21.8778C69.978 21.663 69.8146 21.4926 69.5928 21.3643C69.3711 21.2359 69.14 21.1729 68.8995 21.1729H66.7474C66.507 21.1729 66.2759 21.2359 66.0541 21.3643C65.8324 21.4926 65.669 21.663 65.5616 21.8778L59.5486 34.5457C59.4412 34.7604 59.4249 34.9308 59.4972 35.0592C59.5719 35.1876 59.7283 35.2506 59.9688 35.2506H62.0392C62.2796 35.2506 62.5107 35.1876 62.7325 35.0592C62.9542 34.9308 63.1176 34.7604 63.225 34.5457L64.1494 32.5943H71.4882L72.4126 34.5457C72.5199 34.7604 72.6833 34.9308 72.9051 35.0592C73.1268 35.1876 73.3579 35.2506 73.5984 35.2506H75.6688C75.9093 35.2506 76.068 35.1876 76.1403 35.0592C76.215 34.9308 76.1964 34.7604 76.0913 34.5457L70.0783 21.8778H70.0853ZM65.4799 29.7815L67.8328 24.8749L70.1647 29.7815H65.4799Z" fill="white"/>
<path d="M106.826 32.4356H98.0589V29.6205H104.133C104.373 29.6205 104.567 29.5481 104.716 29.3987C104.866 29.2493 104.938 29.0556 104.938 28.8152V27.6084C104.938 27.3679 104.863 27.1718 104.716 27.0248C104.569 26.8777 104.373 26.803 104.133 26.803H98.0589V23.988H106.425C106.665 23.988 106.861 23.9156 107.008 23.7662C107.155 23.6191 107.23 23.4231 107.23 23.1826V21.9758C107.23 21.7354 107.155 21.5393 107.008 21.3923C106.861 21.2452 106.668 21.1705 106.425 21.1705H95.4469C95.2065 21.1705 95.0104 21.2452 94.8633 21.3923C94.7163 21.5393 94.6416 21.7354 94.6416 21.9758V34.443C94.6416 34.6834 94.714 34.8795 94.8633 35.0266C95.0104 35.1736 95.2041 35.2483 95.4469 35.2483H106.829C107.069 35.2483 107.265 35.1759 107.412 35.0266C107.559 34.8772 107.634 34.6858 107.634 34.443V33.2362C107.634 32.9958 107.562 32.802 107.412 32.6526C107.265 32.5056 107.069 32.4309 106.829 32.4309L106.826 32.4356Z" fill="white"/>
<path d="M112.94 21.1752H111.131C110.89 21.1752 110.694 21.2499 110.547 21.3969C110.4 21.544 110.325 21.7401 110.325 21.9805V34.4476C110.325 34.6881 110.398 34.8841 110.547 35.0312C110.694 35.1782 110.888 35.2529 111.131 35.2529H112.94C113.18 35.2529 113.374 35.1806 113.523 35.0312C113.67 34.8841 113.745 34.6904 113.745 34.4476V21.9805C113.745 21.7401 113.67 21.544 113.523 21.3969C113.376 21.2499 113.18 21.1752 112.94 21.1752Z" fill="white"/>
<path d="M130.857 29.1373C130.642 28.6541 130.341 28.2433 129.951 27.9001C129.562 27.5593 129.097 27.2909 128.553 27.0948C128.009 26.9011 127.405 26.803 126.733 26.803H122.069C121.467 26.803 120.979 26.6653 120.61 26.3899C120.241 26.1144 120.057 25.769 120.057 25.3535C120.057 24.938 120.234 24.6065 120.589 24.3568C120.944 24.1093 121.417 23.9856 122.006 23.9856H126.651C126.959 23.9856 127.19 24.0253 127.344 24.107C127.498 24.1864 127.608 24.3358 127.676 24.5505C127.837 25.0874 128.131 25.3558 128.56 25.3558H130.169C130.409 25.3558 130.607 25.2788 130.761 25.1247C130.915 24.9707 130.979 24.7793 130.953 24.5505C130.899 23.9063 130.778 23.367 130.591 22.9305C130.402 22.494 130.131 22.1462 129.776 21.8848C129.422 21.6234 128.978 21.439 128.451 21.3316C127.921 21.2242 127.281 21.1705 126.529 21.1705H121C120.344 21.1705 119.746 21.2616 119.209 21.4413C118.672 21.621 118.215 21.8801 117.832 22.2163C117.449 22.5524 117.155 22.9586 116.947 23.4324C116.74 23.9086 116.637 24.4338 116.637 25.0103V25.6943C116.637 26.2708 116.744 26.8007 116.959 27.2839C117.174 27.7671 117.475 28.1779 117.865 28.521C118.252 28.8642 118.721 29.1326 119.272 29.3263C119.823 29.5201 120.425 29.6181 121.081 29.6181H125.745C126.35 29.6181 126.835 29.7558 127.204 30.0313C127.573 30.3067 127.757 30.6522 127.757 31.0677C127.757 31.4832 127.58 31.8146 127.225 32.0621C126.87 32.3095 126.396 32.4332 125.808 32.4332H120.962C120.654 32.4332 120.423 32.3935 120.269 32.3118C120.115 32.2325 120.005 32.0854 119.938 31.8707C119.777 31.3338 119.482 31.0654 119.053 31.0654H117.445C117.204 31.0654 117.006 31.1424 116.852 31.2964C116.698 31.4505 116.635 31.6419 116.66 31.8707C116.714 32.5149 116.835 33.0541 117.022 33.4906C117.209 33.9271 117.482 34.2749 117.837 34.5364C118.192 34.7978 118.637 34.9822 119.174 35.0896C119.711 35.197 120.348 35.2506 121.084 35.2506H126.814C127.47 35.2506 128.068 35.1596 128.605 34.9799C129.141 34.7978 129.599 34.541 129.982 34.2049C130.365 33.8688 130.659 33.4649 130.866 32.9888C131.074 32.5126 131.177 31.9874 131.177 31.4108V30.7269C131.177 30.1503 131.07 29.6205 130.855 29.1373H130.857Z" fill="white"/>
<path d="M91.5627 23.6891C91.3083 23.1523 90.9465 22.6994 90.4773 22.3329C90.0081 21.9641 89.4386 21.6794 88.7687 21.4786C88.0987 21.2779 87.3401 21.1775 86.4974 21.1775H77.8911V34.4476C77.8911 34.688 77.9635 34.8841 78.1129 35.0312C78.2599 35.1782 78.4537 35.2529 78.6964 35.2529H80.5055C80.7459 35.2529 80.9396 35.1806 81.089 35.0312C81.2361 34.8841 81.3108 34.6904 81.3108 34.4476V30.1456H86.5791C88.3345 30.1456 89.6697 29.7511 90.58 28.9598C91.4904 28.1685 91.9479 27.0224 91.9479 25.5215C91.9479 24.8376 91.8195 24.2283 91.5651 23.6915L91.5627 23.6891ZM87.9633 26.866C87.5875 27.1741 86.997 27.3282 86.194 27.3282H81.3084V23.9902H86.2757C87.039 23.9902 87.6062 24.142 87.975 24.4431C88.3438 24.7442 88.5282 25.1364 88.5282 25.6195C88.5282 26.1424 88.3415 26.5579 87.9657 26.866H87.9633Z" fill="white"/>
<path d="M99.9729 19.8609H101.373C101.598 19.8609 101.812 19.6999 101.878 19.4875L102.653 16.8941C102.727 16.642 102.562 16.4226 102.298 16.4226H100.505L99.6181 19.3871C99.5434 19.6392 99.7091 19.8586 99.9729 19.8586V19.8609Z" fill="white"/>
<path d="M35.609 0.337858V0.0768918C35.609 0.0349508 35.5742 0 35.5323 0H35.272L26.8155 0.0116503C25.6741 0.0116503 24.6351 0.391449 23.7401 1.09513C16.8201 6.54046 9.91632 12.0044 2.98466 17.4358C1.01348 18.983 0.018596 20.9798 0.0116225 23.4683C0 27.7276 0.00929801 30.4631 0 34.6968V34.9578C0 34.9997 0.0348675 35.0347 0.0767086 35.0347H13.3612V32.8468H2.44538V32.8444H2.36402C2.30591 32.8444 2.25244 32.8211 2.21293 32.7815C2.17341 32.7419 2.15016 32.6907 2.15016 32.6301V32.1478C2.15016 28.8088 2.17341 26.7933 2.14087 23.3448C2.12459 21.6159 2.84287 20.3088 4.17945 19.2952C5.28127 18.4587 6.54115 17.9973 7.88703 17.748C8.48908 17.6362 9.10507 17.5989 9.71874 17.5989H20.0558C20.1441 17.5989 20.2185 17.6525 20.2511 17.7294C20.2627 17.755 20.2673 17.783 20.2673 17.8133V18.2956L20.272 25.9172H22.4547V18.2956V17.8133C22.4547 17.6944 22.55 17.6012 22.6662 17.6012H23.1474H35.272H35.5323C35.5742 17.6012 35.609 17.5663 35.609 17.5243V17.2634V4.31526C35.609 2.98946 35.6067 1.66366 35.609 0.337858ZM33.4542 15.0918C33.4542 15.0918 33.4542 15.0918 33.4542 15.0941V15.2013C33.4542 15.3201 33.3589 15.4133 33.2427 15.4133H33.1497C33.1497 15.4133 33.1474 15.4133 33.1451 15.4133H9.18875C9.2213 15.3061 9.30498 15.2502 9.36774 15.1989C14.5793 11.0841 19.7908 6.96919 25.0047 2.85432C25.5346 2.43724 26.1367 2.25316 26.7945 2.19025C27.3152 2.13899 27.8336 2.15763 28.3543 2.15763H33.1288C33.1288 2.15763 33.1334 2.15763 33.1358 2.15763H33.2427C33.3612 2.15763 33.4542 2.25316 33.4542 2.36967V2.49083V15.0824V15.0918Z" fill="white"/>
<path d="M137.212 21.2506H136.174C136.143 21.2506 136.118 21.269 136.118 21.2918V34.9936C136.118 35.0163 136.143 35.0348 136.174 35.0348H137.212C137.242 35.0348 137.267 35.0163 137.267 34.9936V21.2918C137.267 21.269 137.242 21.2506 137.212 21.2506Z" fill="#009FE3"/>
</svg>
